<svg width="304" height="32" viewBox="0 0 304 32" fill="none" xmlns="http://www.w3.org/2000/svg">
<path d="M15.121 2.11082H0V30.2691H15.121V26.2164H4.19113V17.3509H14.7922V13.2982H4.19113V6.16359H15.121V2.11082Z" fill="#111111"/>
<path d="M20.5448 2.11082V30.2691H32.7895V26.2164H24.7359V2.11082H20.5448Z" fill="#111111"/>
<path d="M51.8367 2.11082H36.7158V30.2691H51.8367V26.2164H40.9069V17.3509H51.508V13.2982H40.9069V6.16359H51.8367V2.11082Z" fill="#111111"/>
<path d="M60.712 30.2691L63.5883 13.2559L71.4775 31.5778L79.4489 13.2982L82.243 30.2691H86.5163L81.339 0L71.724 21.8681L62.1913 0L56.4387 30.2691H60.712Z" fill="#111111"/>
<path d="M107.372 2.11082H92.2508V30.2691H107.372V26.2164H96.442V17.3509H107.043V13.2982H96.442V6.16359H107.372V2.11082Z" fill="#111111"/>
<path d="M116.987 30.2691V10.5963L136.874 32V2.11082H132.683V21.6148L112.796 0.211082V30.2691H116.987Z" fill="#111111"/>
<path d="M157.341 6.16359V2.11082H140.576V6.16359H146.863V30.2691H151.054V6.16359H157.341Z" fill="#111111"/>
<path d="M170.618 2.11082V30.2691H177.48C179.575 30.2691 182.986 29.8892 185.164 27.5251C186.478 26.0897 186.972 24.4855 186.972 22.4591C186.972 20.7282 186.643 18.7863 185.164 17.1821C183.808 15.7467 182.123 15.2823 181.63 15.1557C182.246 14.8602 183.068 14.3113 183.684 13.2137C184.342 12.1161 184.506 10.9763 184.506 9.87863C184.506 7.55673 183.808 5.74142 182.328 4.30607C180.52 2.5752 178.302 2.11082 174.768 2.11082H170.618ZM174.809 6.16359H176.247C177.439 6.16359 178.63 6.29024 179.575 7.219C180.438 8.06332 180.562 9.07652 180.562 9.92084C180.562 10.8918 180.438 12.2005 179.493 13.1293C178.507 14.1003 177.11 14.2269 176.083 14.2269H174.809V6.16359ZM174.809 17.7731H177.439C178.918 17.7731 180.603 17.8997 181.753 19.0396C182.452 19.7573 182.863 20.8549 182.863 21.9947C182.863 23.2612 182.328 24.4433 181.507 25.1187C180.438 26.0053 178.548 26.2164 177.357 26.2164H174.809V17.7731Z" fill="#111111"/>
<path d="M207.367 2.11082H192.246V30.2691H207.367V26.2164H196.437V17.3509H207.038V13.2982H196.437V6.16359H207.367V2.11082Z" fill="#111111"/>
<path d="M231.774 30.2691H236.294L223.31 0.464379L209.668 30.2691H214.188L217.187 23.4723H228.898L231.774 30.2691ZM218.913 19.4195L223.145 9.87863L227.213 19.4195H218.913Z" fill="#111111"/>
<path d="M239.756 2.11082V20.2216C239.756 22.4591 240.208 25.1609 242.303 27.5251C243.742 29.1293 246.166 30.8179 249.905 30.8179C253.644 30.8179 256.068 29.1293 257.507 27.5251C259.602 25.1609 260.054 22.4591 260.054 20.2216V2.11082H255.863V19.0818C255.863 20.6016 255.822 22.4591 255 23.9367C254.178 25.372 252.329 26.8496 249.905 26.8496C247.481 26.8496 245.632 25.372 244.81 23.9367C243.988 22.4591 243.947 20.6016 243.947 19.0818V2.11082H239.756Z" fill="#111111"/>
<path d="M280.529 6.16359V2.11082H263.764V6.16359H270.051V30.2691H274.242V6.16359H280.529Z" fill="#111111"/>
<path d="M290.81 30.2691H295.001V18.1108L304 2.11082H299.234L292.906 13.3826L286.578 2.11082H281.812L290.81 18.1108V30.2691Z" fill="#111111"/>
</svg>
