<svg width="28" height="13" viewBox="0 0 28 13" fill="none" xmlns="http://www.w3.org/2000/svg">
<path d="M0.592 12V10.912L5.152 6.512C5.55733 6.128 5.856 5.792 6.048 5.504C6.25067 5.20533 6.384 4.93333 6.448 4.688C6.52267 4.432 6.56 4.18667 6.56 3.952C6.56 3.376 6.35733 2.92267 5.952 2.592C5.54667 2.26133 4.95467 2.096 4.176 2.096C3.57867 2.096 3.04 2.19733 2.56 2.4C2.08 2.592 1.664 2.896 1.312 3.312L0.224 2.368C0.650667 1.824 1.22133 1.408 1.936 1.12C2.66133 0.821333 3.456 0.672 4.32 0.672C5.09867 0.672 5.776 0.8 6.352 1.056C6.928 1.30133 7.37067 1.65867 7.68 2.128C8 2.59733 8.16 3.152 8.16 3.792C8.16 4.15467 8.112 4.512 8.016 4.864C7.92 5.216 7.73867 5.58933 7.472 5.984C7.20533 6.37867 6.82133 6.82133 6.32 7.312L2.256 11.232L1.872 10.608H8.64V12H0.592ZM13.5715 12.128C12.7822 12.128 12.0142 12.0053 11.2675 11.76C10.5315 11.5147 9.92883 11.184 9.4595 10.768L10.1955 9.504C10.5688 9.856 11.0542 10.144 11.6515 10.368C12.2488 10.592 12.8835 10.704 13.5555 10.704C14.4088 10.704 15.0648 10.5227 15.5235 10.16C15.9822 9.79733 16.2115 9.312 16.2115 8.704C16.2115 8.288 16.1102 7.92533 15.9075 7.616C15.7048 7.30667 15.3528 7.072 14.8515 6.912C14.3608 6.74133 13.6835 6.656 12.8195 6.656H10.2755L10.8675 0.799999H17.1875V2.192H11.4595L12.2915 1.408L11.8275 6.032L10.9955 5.264H13.1555C14.2755 5.264 15.1768 5.408 15.8595 5.696C16.5422 5.984 17.0382 6.384 17.3475 6.896C17.6568 7.39733 17.8115 7.97867 17.8115 8.64C17.8115 9.28 17.6568 9.86667 17.3475 10.4C17.0382 10.9227 16.5688 11.344 15.9395 11.664C15.3208 11.9733 14.5315 12.128 13.5715 12.128ZM23.847 12.128C22.855 12.128 22.007 11.9093 21.303 11.472C20.599 11.0347 20.0603 10.4053 19.687 9.584C19.3243 8.752 19.143 7.73867 19.143 6.544C19.143 5.27467 19.367 4.20267 19.815 3.328C20.263 2.45333 20.887 1.792 21.687 1.344C22.487 0.896 23.4043 0.672 24.439 0.672C24.9723 0.672 25.479 0.725333 25.959 0.832C26.4497 0.938666 26.871 1.104 27.223 1.328L26.615 2.576C26.327 2.37333 25.9963 2.23467 25.623 2.16C25.2603 2.08533 24.8763 2.048 24.471 2.048C23.3297 2.048 22.423 2.40533 21.751 3.12C21.079 3.824 20.743 4.87467 20.743 6.272C20.743 6.496 20.7537 6.76267 20.775 7.072C20.7963 7.38133 20.8497 7.68533 20.935 7.984L20.391 7.44C20.551 6.94933 20.8017 6.53867 21.143 6.208C21.495 5.86667 21.911 5.616 22.391 5.456C22.8817 5.28533 23.4097 5.2 23.975 5.2C24.7217 5.2 25.383 5.33867 25.959 5.616C26.535 5.89333 26.9883 6.288 27.319 6.8C27.6497 7.30133 27.815 7.89867 27.815 8.592C27.815 9.30667 27.639 9.93067 27.287 10.464C26.935 10.9973 26.4603 11.408 25.863 11.696C25.2657 11.984 24.5937 12.128 23.847 12.128ZM23.783 10.832C24.2737 10.832 24.7003 10.7413 25.063 10.56C25.4363 10.3787 25.7297 10.128 25.943 9.808C26.1563 9.47733 26.263 9.09333 26.263 8.656C26.263 7.99467 26.0337 7.472 25.575 7.088C25.1163 6.69333 24.4923 6.496 23.703 6.496C23.191 6.496 22.743 6.592 22.359 6.784C21.975 6.976 21.671 7.23733 21.447 7.568C21.2337 7.888 21.127 8.256 21.127 8.672C21.127 9.056 21.2283 9.41333 21.431 9.744C21.6337 10.064 21.9323 10.3253 22.327 10.528C22.7217 10.7307 23.207 10.832 23.783 10.832Z" fill="#B48166"/>
</svg>
